# xmcd
#
# Track frame offsets:
#	150
#	20635
#	46120
#	70625
#	104375
#	155935
#	214810
#	246845
#
# Disc length: 3643 seconds
#
# Revision: 2
# Processed by: cddbd v1.5.1PL2 Copyright (c) Steve Scherf et al.
# Submitted via: EasyCDDAExtractor 8.0.2.1
#
DISCID=6c0e3908
DTITLE=Whitesnake - Guildhall Portsmouth 11-10-79 Disc 1
DYEAR=1979
DGENRE=Hard Rock
TTITLE0=Come On
TTITLE1=You And Me
TTITLE2=Walking In The Shadows Of The Blues
TTITLE3=Ain't No Love In The Heart Of The City
TTITLE4=Steal Away
TTITLE5=Mistreated
TTITLE6=Jon Lord Solo
TTITLE7=Belgian Tom's Hat Trick
EXTD=
EXTT0=
EXTT1=
EXTT2=
EXTT3=
EXTT4=
EXTT5=
EXTT6=
EXTT7=
PLAYORDER=
